# xmcd
#
# Track frame offsets:
#	150
#	19673
#	33672
#	58950
#	75909
#	92485
#	109683
#	126073
#	146774
#	167194
#	185262
#	201354
#	221152
#
# Disc length: 3219 seconds
#
# Revision: 0
# Processed by: cddbd v1.5.2PL0 Copyright (c) Steve Scherf et al.
# Submitted via: dBpowerAMP V4.0
#
DISCID=b60c910d
DTITLE=Tercer Cielo - Lo Que El Viento Me Enseño
DYEAR=2012
DGENRE=Christian music
TTITLE0=Celebremos Hoy
TTITLE1=Lo Que Soy Se Debe A Ti
TTITLE2=Victoria
TTITLE3=Lo Que Hay Dentro De Ti
TTITLE4=Mira Lo Que Haz Hecho
TTITLE5=Mi Tiempo LLegó
TTITLE6=Sentirte En Mi Alma
TTITLE7=No Estoy Solo
TTITLE8=Demente (Feat. Annette Moreno)
TTITLE9=Ser Tu Heroe
TTITLE10=Dame Mas De Ti(Feat.Deborah Pruneda)
TTITLE11=Amor Inusual
TTITLE12=Demente (Versión Mariachi)
EXTD=TercerCielo-Lo que el Viento me enseno
EXTT0=
EXTT1=
EXTT2=
EXTT3=
EXTT4=
EXTT5=
EXTT6=
EXTT7=
EXTT8=
EXTT9=
EXTT10=
EXTT11=
EXTT12=
PLAYORDER=
